<svg xmlns="http://www.w3.org/2000/svg" viewBox="0 0 512 512" width="100%" height="100%">
  <defs>
    <linearGradient id="brandGrad" x1="0%" y1="0%" x2="100%" y2="100%">
      <stop offset="0%" stop-color="#1e5a52" />
      <stop offset="100%" stop-color="#0f332e" />
    </linearGradient>
    <linearGradient id="accentGrad" x1="0%" y1="0%" x2="100%" y2="100%">
      <stop offset="0%" stop-color="#e8bd42" />
      <stop offset="100%" stop-color="#d4a328" />
    </linearGradient>
  </defs>
  <rect width="512" height="512" rx="128" fill="url(#brandGrad)" />
  <g transform="translate(96, 96)" fill="none" stroke="white" stroke-width="24" stroke-linecap="round" stroke-linejoin="round">
    <!-- Center Person -->
    <circle cx="160" cy="110" r="45" fill="white" stroke="none" />
    <path d="M70 260 C70 200, 110 180, 160 180 C210 180, 250 200, 250 260" fill="white" stroke="none" />
    
    <!-- Left Person -->
    <circle cx="65" cy="130" r="32" fill="white" fill-opacity="0.8" stroke="none" />
    <path d="M10 250 C10 205, 40 190, 75 190 C95 190, 115 198, 125 210" fill="white" fill-opacity="0.8" stroke="none" />
    
    <!-- Right Person -->
    <circle cx="255" cy="130" r="32" fill="white" fill-opacity="0.8" stroke="none" />
    <path d="M195 210 C205 198, 225 190, 245 190 C280 190, 310 205, 310 250" fill="white" fill-opacity="0.8" stroke="none" />
  </g>
  <!-- Accent spark -->
  <circle cx="370" cy="140" r="18" fill="url(#accentGrad)" />
</svg>
